<?xml version="1.0" encoding="UTF-8" standalone="no"?>
<!-- Created with Inkscape (http://www.inkscape.org/) -->

<svg
   width="210mm"
   height="297mm"
   viewBox="0 0 210 297"
   version="1.1"
   id="svg5"
   inkscape:version="1.1.2 (b8e25be8, 2022-02-05)"
   sodipodi:docname="BaseAndTop_holes.svg"
   xmlns:inkscape="http://www.inkscape.org/namespaces/inkscape"
   xmlns:sodipodi="http://sodipodi.sourceforge.net/DTD/sodipodi-0.dtd"
   xmlns="http://www.w3.org/2000/svg"
   xmlns:svg="http://www.w3.org/2000/svg">
  <sodipodi:namedview
     id="namedview7"
     pagecolor="#ffffff"
     bordercolor="#666666"
     borderopacity="1.0"
     inkscape:pageshadow="2"
     inkscape:pageopacity="0.0"
     inkscape:pagecheckerboard="0"
     inkscape:document-units="mm"
     showgrid="false"
     inkscape:zoom="0.65257311"
     inkscape:cx="338.65937"
     inkscape:cy="406.85096"
     inkscape:window-width="1309"
     inkscape:window-height="765"
     inkscape:window-x="0"
     inkscape:window-y="35"
     inkscape:window-maximized="0"
     inkscape:current-layer="layer1" />
  <defs
     id="defs2">
    <marker
       id="DistanceX"
       orient="auto"
       refX="0.0"
       refY="0.0"
       style="overflow:visible">
      <path
         d="M 3,-3 L -3,3 M 0,-5 L  0,5"
         style="stroke:#000000; stroke-width:0.5"
         id="path11" />
    </marker>
    <pattern
       id="Hatch"
       patternUnits="userSpaceOnUse"
       width="8"
       height="8"
       x="0"
       y="0">
      <path
         d="M8 4 l-4,4"
         stroke="#000000"
         stroke-width="0.25"
         linecap="square"
         id="path14" />
      <path
         d="M6 2 l-4,4"
         stroke="#000000"
         stroke-width="0.25"
         linecap="square"
         id="path16" />
      <path
         d="M4 0 l-4,4"
         stroke="#000000"
         stroke-width="0.25"
         linecap="square"
         id="path18" />
    </pattern>
    <symbol
       id="*MODEL_SPACE" />
    <symbol
       id="*PAPER_SPACE" />
  </defs>
  <g
     inkscape:label="Taso 1"
     inkscape:groupmode="layer"
     id="layer1">
    <path
       d="M 82.632311,200.13229 A 30.000001,30.000001 0 0 1 52.632291,170.1323 v -17.00001 a 3.0000001,3.0000001 0 0 1 3.00001,-3 h 1.58726 a 3.0000001,3.0000001 0 0 0 2.544,-4.58999 L 0.8923115,51.348301 a 5.0000001,5.0000001 0 0 1 -0.76002,-2.64999 V 5.1322915 a 5.0000001,5.0000001 0 0 1 5.00002,-5 H 175.13231 a 5.0000001,5.0000001 0 0 1 5,5 V 48.698311 a 5.0000001,5.0000001 0 0 1 -0.76001,2.64999 L 120.50104,145.5423 a 3.0000001,3.0000001 0 0 0 2.544,4.58999 h 1.58726 a 3.0000001,3.0000001 0 0 1 3,3 v 17.00001 a 30.000001,30.000001 0 0 1 -29.999989,29.99999 z"
       style="fill:none;stroke:#000000;stroke-width:0.05;stroke-miterlimit:4;stroke-dasharray:none"
       id="path25" />
    <rect
       style="fill:#ffffff;fill-opacity:0.898785;stroke:#000000;stroke-width:0.05;stroke-miterlimit:4;stroke-dasharray:none;stroke-opacity:1"
       id="rect858-8-43"
       width="9.9800272"
       height="2.980027"
       x="12.678"
       y="0.097000003" />
    <rect
       style="fill:#ffffff;fill-opacity:0.898785;stroke:#000000;stroke-width:0.05;stroke-miterlimit:4;stroke-dasharray:none;stroke-opacity:1"
       id="rect858-8-43-9"
       width="9.9800272"
       height="2.980027"
       x="48.172001"
       y="0.097000003" />
    <rect
       style="fill:#ffffff;fill-opacity:0.898785;stroke:#000000;stroke-width:0.05;stroke-miterlimit:4;stroke-dasharray:none;stroke-opacity:1"
       id="rect858-8-43-9-5"
       width="9.9800272"
       height="2.980027"
       x="111.172"
       y="0.097000003" />
    <rect
       style="fill:#ffffff;fill-opacity:0.898785;stroke:#000000;stroke-width:0.05;stroke-miterlimit:4;stroke-dasharray:none;stroke-opacity:1"
       id="rect858-8-43-9-5-6"
       width="9.9800272"
       height="2.980027"
       x="20.025"
       y="-180.1537"
       transform="rotate(90)" />
    <rect
       style="fill:#ffffff;fill-opacity:0.898785;stroke:#000000;stroke-width:0.05;stroke-miterlimit:4;stroke-dasharray:none;stroke-opacity:1"
       id="rect858-8-43-9-5-6-75"
       width="9.9800272"
       height="2.980027"
       x="-41.766243"
       y="-179.33557"
       transform="rotate(122.00001)" />
    <rect
       style="fill:#ffffff;fill-opacity:0.898785;stroke:#000000;stroke-width:0.05;stroke-miterlimit:4;stroke-dasharray:none;stroke-opacity:1"
       id="rect858-8-43-9-5-6-75-6"
       width="9.9800272"
       height="2.980027"
       x="-14.037947"
       y="-179.3074"
       transform="rotate(122.00001)" />
    <rect
       style="fill:#ffffff;fill-opacity:0.898785;stroke:#000000;stroke-width:0.05;stroke-miterlimit:4;stroke-dasharray:none;stroke-opacity:1"
       id="rect858-8-43-9-5-6-75-6-0"
       width="9.9800272"
       height="2.980027"
       x="10.713004"
       y="-179.32628"
       transform="rotate(122.00001)" />
    <rect
       style="fill:#ffffff;fill-opacity:0.898785;stroke:#000000;stroke-width:0.05;stroke-miterlimit:4;stroke-dasharray:none;stroke-opacity:1"
       id="rect858-8-43-9-5-6-75-6-0-2"
       width="9.9800272"
       height="2.980027"
       x="37.822453"
       y="-179.34494"
       transform="rotate(122.00001)" />
    <rect
       style="fill:#ffffff;fill-opacity:0.898785;stroke:#000000;stroke-width:0.05;stroke-miterlimit:4;stroke-dasharray:none;stroke-opacity:1"
       id="rect858-8-43-9-5-6-75-6-0-2-1"
       width="9.9800272"
       height="2.980027"
       x="133.35884"
       y="-26.454855"
       transform="matrix(0.52991941,0.848048,0.848048,-0.52991941,0,0)" />
    <rect
       style="fill:#ffffff;fill-opacity:0.898785;stroke:#000000;stroke-width:0.05;stroke-miterlimit:4;stroke-dasharray:none;stroke-opacity:1"
       id="rect858-8-43-9-5-6-75-6-0-3"
       width="9.9800272"
       height="2.980027"
       x="106.22289"
       y="-26.478598"
       transform="matrix(0.52991941,0.848048,0.848048,-0.52991941,0,0)" />
    <rect
       style="fill:#ffffff;fill-opacity:0.898785;stroke:#000000;stroke-width:0.05;stroke-miterlimit:4;stroke-dasharray:none;stroke-opacity:1"
       id="rect858-8-43-9-5-6-75-6-6"
       width="9.9800272"
       height="2.980027"
       x="81.471924"
       y="-26.459713"
       transform="matrix(0.52991941,0.848048,0.848048,-0.52991941,0,0)" />
    <rect
       style="fill:#ffffff;fill-opacity:0.898785;stroke:#000000;stroke-width:0.05;stroke-miterlimit:4;stroke-dasharray:none;stroke-opacity:1"
       id="rect858-8-43-9-5-6-75-2"
       width="9.9800272"
       height="2.980027"
       x="53.752987"
       y="-26.472914"
       transform="matrix(0.52991941,0.848048,0.848048,-0.52991941,0,0)" />
    <rect
       style="fill:#ffffff;fill-opacity:0.898785;stroke:#000000;stroke-width:0.05;stroke-miterlimit:4;stroke-dasharray:none;stroke-opacity:1"
       id="rect858-8-43-9-5-6-7"
       width="9.9800272"
       height="2.980027"
       x="20.025"
       y="-3.1117411"
       transform="rotate(90)" />
    <rect
       style="fill:#ffffff;fill-opacity:0.898785;stroke:#000000;stroke-width:0.05;stroke-miterlimit:4;stroke-dasharray:none;stroke-opacity:1"
       id="rect858-8-43-9-5-8"
       width="9.9800272"
       height="2.980027"
       x="151.172"
       y="0.097000003" />
    <rect
       style="fill:#ffffff;fill-opacity:0.898785;stroke:#000000;stroke-width:0.05;stroke-miterlimit:4;stroke-dasharray:none;stroke-opacity:1"
       id="rect858-8-43-9-5-8-4"
       width="9.9800272"
       height="2.980027"
       x="157.02499"
       y="-127.62503"
       transform="rotate(90)" />
    <rect
       style="fill:#ffffff;fill-opacity:0.898785;stroke:#000000;stroke-width:0.05;stroke-miterlimit:4;stroke-dasharray:none;stroke-opacity:1"
       id="rect858-8-43-9-5-8-4-7"
       width="9.9800272"
       height="2.980027"
       x="157.02499"
       y="-55.605026"
       transform="rotate(90)" />
    <rect
       style="fill:#ffffff;fill-opacity:0.898785;stroke:#000000;stroke-width:0.05;stroke-miterlimit:4;stroke-dasharray:none;stroke-opacity:1"
       id="rect858-8-43-9-5-8-4-7-5"
       width="9.9800272"
       height="2.980027"
       x="-94.505028"
       y="-200.13229"
       transform="scale(-1)" />
    <rect
       style="fill:#ffffff;fill-opacity:0.898785;stroke:#000000;stroke-width:0.0610274;stroke-miterlimit:4;stroke-dasharray:none;stroke-opacity:1"
       id="rect858-8-43-9-5-8-1-73-2-7-6-4"
       width="13.225818"
       height="3.3499529"
       x="-162.18156"
       y="-204.93791"
       transform="matrix(0.47845465,-0.87811227,-0.97484588,-0.22288001,0,0)" />
    <rect
       style="fill:#ffffff;fill-opacity:0.898785;stroke:#000000;stroke-width:0.0610274;stroke-miterlimit:4;stroke-dasharray:none;stroke-opacity:1"
       id="rect858-8-43-9-5-8-1-73-2-7-6-4-03"
       width="13.225818"
       height="3.3499529"
       x="-203.93883"
       y="-40.41991"
       transform="matrix(-0.47845465,-0.87811227,0.97484589,-0.22288001,0,0)" />
    <rect
       style="fill:#ffffff;fill-opacity:0.898785;stroke:#000000;stroke-width:0.0590412;stroke-miterlimit:4;stroke-dasharray:none;stroke-opacity:1"
       id="rect858-8-43-9-5-8-1-73-2-7-6-4-0"
       width="13.607293"
       height="3.047544"
       x="-52.792622"
       y="-229.27789"
       transform="matrix(0.84657717,-0.532266,-0.66703171,-0.74502933,0,0)" />
    <rect
       style="fill:#ffffff;fill-opacity:0.898785;stroke:#000000;stroke-width:0.0590412;stroke-miterlimit:4;stroke-dasharray:none;stroke-opacity:1"
       id="rect858-8-43-9-5-8-1-73-2-7-6-4-0-9"
       width="13.607293"
       height="3.047544"
       x="-189.06697"
       y="-131.92097"
       transform="matrix(-0.84657717,-0.532266,0.66703171,-0.74502933,0,0)" />
  </g>
</svg>
